HIERARCHY
ROOT hip
{
  OFFSET 0 0 0
  CHANNELS 6 Xposition Yposition Zposition Zrotation Yrotation Xrotation
  JOINT abdomen
  {
    OFFSET 0 20.6881 -0.73152
    CHANNELS 3 Zrotation Xrotation Yrotation
    JOINT chest
    {
      OFFSET 0 11.7043 -0.48768
      CHANNELS 3 Zrotation Xrotation Yrotation
      JOINT neck
      {
        OFFSET 0 22.1894 -2.19456
        CHANNELS 3 Zrotation Xrotation Yrotation
        JOINT head
        {
          OFFSET -0.24384 7.07133 1.2192
          CHANNELS 3 Zrotation Xrotation Yrotation
          JOINT leftEye
          {
            OFFSET 4.14528 8.04674 8.04672
            CHANNELS 3 Zrotation Xrotation Yrotation
            End Site
            {
              OFFSET 1 0 0
            }
          }
          JOINT rightEye
          {
            OFFSET -3.6576 8.04674 8.04672
            CHANNELS 3 Zrotation Xrotation Yrotation
            End Site
            {
              OFFSET 1 0 0
            }
          }
        }
      }
      JOINT rCollar
      {
        OFFSET -2.68224 19.2634 -4.8768
        CHANNELS 3 Zrotation Xrotation Yrotation
        JOINT rShldr
        {
          OFFSET -8.77824 -1.95073 1.46304
          CHANNELS 3 Zrotation Xrotation Yrotation
          JOINT rForeArm
          {
            OFFSET -28.1742 -1.7115 0.48768
            CHANNELS 3 Zrotation Xrotation Yrotation
            JOINT rHand
            {
              OFFSET -22.5879 0.773209 7.07136
              CHANNELS 3 Zrotation Xrotation Yrotation
              JOINT rThumb1
              {
                OFFSET -1.2192 -0.487915 3.41376
                CHANNELS 3 Zrotation Xrotation Yrotation
                JOINT rThumb2
                {
                  OFFSET -3.37035 -0.52449 3.41376
                  CHANNELS 3 Zrotation Xrotation Yrotation
                  End Site
                  {
                    OFFSET -1.78271 -1.18214 1.43049
                  }
                }
              }
              JOINT rIndex1
              {
                OFFSET -7.75947 0.938293 5.60832
                CHANNELS 3 Zrotation Xrotation Yrotation
                JOINT rIndex2
                {
                  OFFSET -2.54057 -0.884171 1.56538
                  CHANNELS 3 Zrotation Xrotation Yrotation
                  End Site
                  {
                    OFFSET -1.62519 -0.234802 1.16502
                  }
                }
              }
              JOINT rMid1
              {
                OFFSET -8.24714 1.18213 3.41376
                CHANNELS 3 Zrotation Xrotation Yrotation
                JOINT rMid2
                {
                  OFFSET -3.10165 -0.590103 1.0647
                  CHANNELS 3 Zrotation Xrotation Yrotation
                  End Site
                  {
                    OFFSET -2.48547 -0.328903 0.83742
                  }
                }
              }
              JOINT rRing1
              {
                OFFSET -8.82822 0.546677 1.51678
                CHANNELS 3 Zrotation Xrotation Yrotation
                JOINT rRing2
                {
                  OFFSET -2.60934 -0.819778 -0.0198488
                  CHANNELS 3 Zrotation Xrotation Yrotation
                  End Site
                  {
                    OFFSET -2.33842 -0.294052 0.168128
                  }
                }
              }
              JOINT rPinky1
              {
                OFFSET -8.27202 -0.0477905 -0.4584
                CHANNELS 3 Zrotation Xrotation Yrotation
                JOINT rPinky2
                {
                  OFFSET -1.82734 -0.647385 -0.700984
                  CHANNELS 3 Zrotation Xrotation Yrotation
                  End Site
                  {
                    OFFSET -1.69225 -0.51767 -0.607171
                  }
                }
              }
            }
          }
        }
      }
      JOINT lCollar
      {
        OFFSET 2.68224 19.2634 -4.8768
        CHANNELS 3 Zrotation Xrotation Yrotation
        JOINT lShldr
        {
          OFFSET 8.77824 -1.95073 1.46304
          CHANNELS 3 Zrotation Xrotation Yrotation
          JOINT lForeArm
          {
            OFFSET 28.1742 -1.7115 0.48768
            CHANNELS 3 Zrotation Xrotation Yrotation
            JOINT lHand
            {
              OFFSET 22.5879 0.773209 7.07136
              CHANNELS 3 Zrotation Xrotation Yrotation
              JOINT lThumb1
              {
                OFFSET 1.2192 -0.487915 3.41376
                CHANNELS 3 Zrotation Xrotation Yrotation
                JOINT lThumb2
                {
                  OFFSET 3.37035 -0.52449 3.41376
                  CHANNELS 3 Zrotation Xrotation Yrotation
                  End Site
                  {
                    OFFSET 1.78271 -1.18214 1.43049
                  }
                }
              }
              JOINT lIndex1
              {
                OFFSET 7.75947 0.938293 5.60832
                CHANNELS 3 Zrotation Xrotation Yrotation
                JOINT lIndex2
                {
                  OFFSET 2.54057 -0.884171 1.56538
                  CHANNELS 3 Zrotation Xrotation Yrotation
                  End Site
                  {
                    OFFSET 1.62519 -0.234802 1.16502
                  }
                }
              }
              JOINT lMid1
              {
                OFFSET 8.24714 1.18213 3.41376
                CHANNELS 3 Zrotation Xrotation Yrotation
                JOINT lMid2
                {
                  OFFSET 3.10165 -0.590103 1.0647
                  CHANNELS 3 Zrotation Xrotation Yrotation
                  End Site
                  {
                    OFFSET 2.48547 -0.328903 0.83742
                  }
                }
              }
              JOINT lRing1
              {
                OFFSET 8.82822 0.546677 1.51678
                CHANNELS 3 Zrotation Xrotation Yrotation
                JOINT lRing2
                {
                  OFFSET 2.60934 -0.819778 -0.0198488
                  CHANNELS 3 Zrotation Xrotation Yrotation
                  End Site
                  {
                    OFFSET 2.33842 -0.294052 0.168128
                  }
                }
              }
              JOINT lPinky1
              {
                OFFSET 8.27202 -0.0477905 -0.4584
                CHANNELS 3 Zrotation Xrotation Yrotation
                JOINT lPinky2
                {
                  OFFSET 1.82734 -0.647385 -0.700984
                  CHANNELS 3 Zrotation Xrotation Yrotation
                  End Site
                  {
                    OFFSET 1.69225 -0.51767 -0.607171
                  }
                }
              }
            }
          }
        }
      }
    }
  }
  JOINT rButtock
  {
    OFFSET -8.77824 4.35084 1.2192
    CHANNELS 3 Zrotation Xrotation Yrotation
    JOINT rThigh
    {
      OFFSET 0 -1.70687 -2.19456
      CHANNELS 3 Zrotation Xrotation Yrotation
      JOINT rShin
      {
        OFFSET 0 -36.8199 0.73152
        CHANNELS 3 Zrotation Xrotation Yrotation
        JOINT rFoot
        {
          OFFSET 0.73152 -45.1104 -5.12064
          CHANNELS 3 Zrotation Xrotation Yrotation
          End Site
          {
            OFFSET -1.1221 -3.69964 12.103
          }
        }
      }
    }
  }
  JOINT lButtock
  {
    OFFSET 8.77824 4.35084 1.2192
    CHANNELS 3 Zrotation Xrotation Yrotation
    JOINT lThigh
    {
      OFFSET 0 -1.70687 -2.19456
      CHANNELS 3 Zrotation Xrotation Yrotation
      JOINT lShin
      {
        OFFSET 0 -36.8199 0.73152
        CHANNELS 3 Zrotation Xrotation Yrotation
        JOINT lFoot
        {
          OFFSET -0.73152 -45.1104 -5.12064
          CHANNELS 3 Zrotation Xrotation Yrotation
          End Site
          {
            OFFSET 1.1221 -3.69964 12.103
          }
        }
      }
    }
  }
}
MOTION
Frames:	7
Frame Time:	0.00833333
2.83531 82.654 -109.108 0.3235 -3.5117 11.2111 -0.0806125 7.47436 5.79438 0.764251 -5.62172 1.54767 4.39451 -2.09878 1.07077 -11.0089 -5.79816 0.189514 -0.0 0.0 0.0 -0.0 0.0 0.0 1.07634e-13 -6.34048e-13 4.93304e-14 71.9086 28.4401 9.61659 -15.0581 -7.84088 27.7081 -0.107981 -9.33622 -1.32396 -4.32621e-10 -2.56171e-09 1.7546e-09 -7.48938e-10 -4.42394e-09 3.0281e-09 -4.32609e-10 -2.56172e-09 1.75462e-09 7.73091 5.47488 0.417314 -4.32616e-10 -2.56172e-09 1.75462e-09 2.90554 0.965183 0.102902 -4.32606e-10 -2.56172e-09 1.75461e-09 10.2786 0.731801 0.0259123 -4.32627e-10 -2.56171e-09 1.75461e-09 2.22167 -0.733487 -0.20892 1.07607e-13 -6.34048e-13 4.90105e-14 -79.2207 -11.3116 14.7325 6.02898 -2.05632 -10.5381 0.331919 16.2131 -2.34142 4.23588e-10 -1.78941e-09 -5.53557e-09 6.59734e-10 -3.04763e-09 -9.5618e-09 4.2358e-10 -1.78941e-09 -5.53557e-09 -7.73091 5.47488 -0.417314 4.2359e-10 -1.78941e-09 -5.53558e-09 -2.90554 0.965183 -0.102902 4.23585e-10 -1.78941e-09 -5.53557e-09 -10.2786 0.731801 -0.0259123 4.2359e-10 -1.7894e-09 -5.53558e-09 -2.22167 -0.733487 0.20892 -2.03217e-16 0.0 -3.88251e-19 -5.22266 -8.91325 -1.21558 -0.611838 46.8895 0.336058 5.41539 42.0296 -9.60021 2.03217e-16 0.0 3.88251e-19 -1.58332 -35.3948 4.82408 0.23361 33.099 -0.141173 5.42371 -15.8124 14.0739
3.07218 82.7247 -107.771 0.9211 -3.8676 10.8651 -1.14989 7.63305 5.49374 1.08577 -5.65458 1.45141 4.51919 -1.97816 1.22292 -11.0876 -5.64598 0.471765 -0.0 0.0 0.0 -0.0 0.0 0.0 1.07986e-13 -4.57599e-13 6.44621e-14 72.2729 28.6797 8.77525 -14.8618 -7.67106 27.3048 -0.0985123 -8.9236 -1.26444 -6.6957e-10 -1.34458e-09 1.21091e-09 -1.15812e-09 -2.32027e-09 2.08825e-09 -6.6956e-10 -1.34458e-09 1.21092e-09 7.73091 5.47488 0.417314 -6.69564e-10 -1.34458e-09 1.21092e-09 2.90554 0.965183 0.102902 -6.69554e-10 -1.34458e-09 1.21092e-09 10.2786 0.731801 0.0259123 -6.69573e-10 -1.34457e-09 1.21092e-09 2.22167 -0.733487 -0.20892 1.08019e-13 -4.57605e-13 6.41267e-14 -79.9637 -10.1339 13.7626 6.13973 -2.10495 -10.7377 0.283229 14.9815 -2.15483 9.42195e-11 -1.39336e-09 -3.55757e-09 1.17529e-10 -2.38088e-09 -6.14142e-09 9.42083e-11 -1.39336e-09 -3.55757e-09 -7.73091 5.47488 -0.417314 9.42209e-11 -1.39336e-09 -3.55758e-09 -2.90554 0.965183 -0.102902 9.42164e-11 -1.39336e-09 -3.55758e-09 -10.2786 0.731801 -0.0259123 9.4222e-11 -1.39336e-09 -3.55758e-09 -2.22167 -0.733487 0.20892 -2.03217e-16 0.0 -3.88251e-19 -6.72258 -11.3435 -2.03675 -0.751626 50.9806 0.498817 5.1061 39.342 -9.82286 2.03217e-16 0.0 3.88251e-19 -2.5101 -33.8279 4.8631 0.219669 32.4382 -0.111456 5.18088 -15.3495 13.8171
3.32864 82.7995 -106.432 1.652 -4.146 10.5283 -2.29243 7.78983 5.12689 1.44711 -5.70174 1.33845 4.65396 -1.85825 1.38413 -11.156 -5.50607 0.768484 -0.0 0.0 0.0 -0.0 0.0 0.0 1.04185e-13 -2.59085e-13 7.71556e-14 72.6818 28.8319 7.88172 -14.655 -7.4949 26.8821 -0.0893909 -8.50164 -1.20375 -9.04197e-10 -5.9114e-11 6.22467e-10 -1.56328e-09 -9.86153e-11 1.07115e-09 -9.04188e-10 -5.91165e-11 6.2247e-10 7.73091 5.47488 0.417314 -9.0419e-10 -5.9116e-11 6.2248e-10 2.90554 0.965183 0.102902 -9.04181e-10 -5.9116e-11 6.22478e-10 10.2786 0.731801 0.0259123 -9.04197e-10 -5.91087e-11 6.22477e-10 2.22167 -0.733487 -0.20892 1.04274e-13 -2.59096e-13 7.68109e-14 -80.7171 -8.62332 12.7079 6.29405 -2.17472 -11.0147 0.23169 13.5341 -1.9386 -2.73529e-10 -9.46398e-10 -1.45734e-09 -4.89386e-10 -1.62717e-09 -2.51e-09 -2.73542e-10 -9.46395e-10 -1.45733e-09 -7.73091 5.47488 -0.417314 -2.73528e-10 -9.46399e-10 -1.45734e-09 -2.90554 0.965183 -0.102902 -2.73531e-10 -9.46398e-10 -1.45734e-09 -10.2786 0.731801 -0.0259123 -2.73525e-10 -9.46395e-10 -1.45735e-09 -2.22167 -0.733487 0.20892 -2.03217e-16 0.0 -3.88251e-19 -8.3267 -13.8456 -2.98439 -0.925314 54.9719 0.699053 4.74412 36.0677 -10.1886 2.03217e-16 0.0 3.88251e-19 -3.52866 -32.2288 4.84751 0.204216 31.6901 -0.087933 4.92179 -14.8034 13.5458
3.59024 82.8692 -105.086 2.4375 -4.3375 10.1989 -3.30967 7.92842 4.69541 1.78477 -5.75327 1.21034 4.79049 -1.73407 1.54261 -11.2039 -5.39173 1.05848 -0.0 0.0 0.0 -0.0 0.0 0.0 9.95369e-14 -1.22444e-13 7.9663e-14 73.1426 28.8365 6.92084 -14.4364 -7.31203 26.4363 -0.0809802 -8.09154 -1.14489 -1.04281e-09 7.85164e-10 2.16084e-10 -1.80253e-09 1.36042e-09 3.6885e-10 -1.0428e-09 7.85165e-10 2.16081e-10 7.73091 5.47488 0.417314 -1.0428e-09 7.85164e-10 2.16093e-10 2.90554 0.965183 0.102902 -1.04279e-09 7.85165e-10 2.16093e-10 10.2786 0.731801 0.0259123 -1.0428e-09 7.8517e-10 2.16093e-10 2.22167 -0.733487 -0.20892 9.9652e-14 -1.22457e-13 7.93151e-14 -81.4156 -6.84503 11.6025 6.50125 -2.27192 -11.3847 0.178854 11.9646 -1.70664 -5.72383e-10 -5.95468e-10 -7.90559e-11 -9.8693e-10 -1.03313e-09 -1.27048e-10 -5.72398e-10 -5.95464e-10 -7.90527e-11 -7.73091 5.47488 -0.417314 -5.72382e-10 -5.9547e-10 -7.90622e-11 -2.90554 0.965183 -0.102902 -5.72385e-10 -5.95469e-10 -7.90583e-11 -10.2786 0.731801 -0.0259123 -5.72378e-10 -5.95466e-10 -7.90654e-11 -2.22167 -0.733487 0.20892 -2.03217e-16 0.0 -3.88251e-19 -9.83595 -16.3442 -3.9943 -1.11964 58.5701 0.921529 4.32669 32.8902 -10.5233 2.03217e-16 0.0 3.88251e-19 -4.46414 -30.6935 4.80861 0.189295 30.9944 -0.0742171 4.66443 -14.2839 13.2309
3.83192 82.9258 -103.741 3.1653 -4.4385 9.8952 -4.18653 8.04623 4.17605 2.09599 -5.81497 1.06075 4.93109 -1.59671 1.70249 -11.224 -5.31098 1.34976 -0.0 0.0 0.0 -0.0 0.0 0.0 8.94235e-14 -8.49253e-14 7.03014e-14 73.6553 28.682 5.88756 -14.2035 -7.1203 25.9637 -0.0727169 -7.67599 -1.08535 -1.03388e-09 9.68492e-10 1.52089e-10 -1.78706e-09 1.67714e-09 2.58571e-10 -1.03387e-09 9.68493e-10 1.52084e-10 7.73091 5.47488 0.417314 -1.03387e-09 9.68492e-10 1.52097e-10 2.90554 0.965183 0.102902 -1.03386e-09 9.68493e-10 1.52097e-10 10.2786 0.731801 0.0259123 -1.03388e-09 9.68496e-10 1.52099e-10 2.22167 -0.733487 -0.20892 8.95252e-14 -8.49347e-14 6.99602e-14 -82.055 -4.69577 10.4457 6.76766 -2.39826 -11.8631 0.12567 10.2156 -1.45064 -7.9412e-10 -4.43585e-10 1.82341e-10 -1.36535e-09 -7.74225e-10 3.24775e-10 -7.94136e-10 -4.43581e-10 1.82344e-10 -7.73091 5.47488 -0.417314 -7.94118e-10 -4.43586e-10 1.82336e-10 -2.90554 0.965183 -0.102902 -7.94122e-10 -4.43585e-10 1.82338e-10 -10.2786 0.731801 -0.0259123 -7.94115e-10 -4.43583e-10 1.82331e-10 -2.22167 -0.733487 0.20892 -2.03217e-16 0.0 -3.88251e-19 -11.2639 -18.849 -5.11314 -1.33126 61.7638 1.16601 3.86052 29.8538 -10.8116 2.03217e-16 0.0 3.88251e-19 -5.30557 -29.2264 4.74632 0.173603 30.3365 -0.0700425 4.38913 -13.7677 12.8236
4.04341 82.9618 -102.393 3.774 -4.4583 9.6294 -5.01596 8.1509 3.5758 2.4097 -5.88929 0.891065 5.07855 -1.45135 1.86766 -11.2225 -5.25524 1.64913 -0.0 0.0 0.0 -0.0 0.0 0.0 7.39156e-14 -9.68066e-14 5.30755e-14 74.2029 28.3956 4.79692 -13.9571 -6.92015 25.4672 -0.0646859 -7.25136 -1.02462 -9.36233e-10 7.90571e-10 2.76238e-10 -1.61842e-09 1.36947e-09 4.73655e-10 -9.36227e-10 7.90573e-10 2.76233e-10 7.73091 5.47488 0.417314 -9.36229e-10 7.90571e-10 2.76243e-10 2.90554 0.965183 0.102902 -9.3622e-10 7.90572e-10 2.76244e-10 10.2786 0.731801 0.0259123 -9.36234e-10 7.90574e-10 2.76247e-10 2.22167 -0.733487 -0.20892 7.39788e-14 -9.68088e-14 5.27494e-14 -82.6181 -2.17437 9.23406 7.08505 -2.54979 -12.438 0.0794774 8.26456 -1.16873 -9.89158e-10 -3.911e-10 -1.66308e-10 -1.70528e-09 -6.82345e-10 -2.78313e-10 -9.89174e-10 -3.91095e-10 -1.66305e-10 -7.73091 5.47488 -0.417314 -9.89156e-10 -3.911e-10 -1.6631e-10 -2.90554 0.965183 -0.102902 -9.89161e-10 -3.911e-10 -1.6631e-10 -10.2786 0.731801 -0.0259123 -9.89153e-10 -3.91099e-10 -1.66318e-10 -2.22167 -0.733487 0.20892 -2.03217e-16 0.0 -3.88251e-19 -12.7267 -21.3818 -6.37397 -1.57486 64.687 1.44875 3.32964 26.6428 -11.141 2.03217e-16 0.0 3.88251e-19 -6.12849 -27.783 4.64935 0.156096 29.659 -0.0735902 4.09836 -13.2125 12.3543
4.21825 82.9723 -101.043 4.2366 -4.3965 9.4089 -5.76218 8.24148 2.94162 2.71 -5.96131 0.714478 5.22548 -1.3142 2.02586 -11.2098 -5.21289 1.93362 -0.0 0.0 0.0 -0.0 0.0 0.0 6.33486e-14 -1.1157e-13 2.87679e-14 74.7631 27.9748 3.66612 -13.7005 -6.71517 24.9533 -0.0578289 -6.85928 -0.96866 -8.21666e-10 5.21104e-10 3.43464e-10 -1.42025e-09 9.03318e-10 5.90364e-10 -8.2166e-10 5.21106e-10 3.43461e-10 7.73091 5.47488 0.417314 -8.21664e-10 5.21105e-10 3.43468e-10 2.90554 0.965183 0.102902 -8.21654e-10 5.21105e-10 3.43468e-10 10.2786 0.731801 0.0259123 -8.21669e-10 5.21106e-10 3.43473e-10 2.22167 -0.733487 -0.20892 6.33598e-14 -1.11565e-13 2.84584e-14 -83.0407 0.495253 7.98537 7.44068 -2.72421 -13.084 0.0454696 6.257 -0.882186 -1.13819e-09 -2.80969e-10 -6.16538e-10 -1.96817e-09 -4.88793e-10 -1.05747e-09 -1.1382e-09 -2.80964e-10 -6.16535e-10 -7.73091 5.47488 -0.417314 -1.13818e-09 -2.80967e-10 -6.16536e-10 -2.90554 0.965183 -0.102902 -1.13819e-09 -2.80968e-10 -6.1654e-10 -10.2786 0.731801 -0.0259123 -1.13818e-09 -2.80968e-10 -6.16548e-10 -2.22167 -0.733487 0.20892 -2.03217e-16 0.0 -3.88251e-19 -14.1503 -23.8892 -7.68472 -1.84481 67.2648 1.76184 2.75138 23.3952 -11.5002 2.03217e-16 0.0 3.88251e-19 -6.89221 -26.3861 4.52878 0.138851 29.0381 -0.0859578 3.83794 -12.7011 11.9098
